<svg width="24" height="24" viewBox="0 0 24 24" fill="none" xmlns="http://www.w3.org/2000/svg">
<circle cx="12" cy="12" r="10.75" stroke="white" stroke-width="2.5"/>
<path d="M11.9965 10.956L11.9882 11.2174L11.9368 12.8348L12.0714 12.6506C12.0177 12.8193 11.9879 13.0053 11.9879 13.209V15.7489H10.5561V10.956H11.9965ZM17.37 15.7489H15.932V13.209C15.932 12.5986 15.6822 12.1153 15.2829 11.7984C14.8976 11.4926 14.4079 11.3678 13.9466 11.3801C13.5241 11.3914 13.0622 11.5287 12.6931 11.7999L12.8916 11.5283C13.0574 11.3015 13.4042 11.0769 13.9022 10.9304C14.3888 10.7873 14.9601 10.7375 15.5 10.8062C16.0428 10.8753 16.5162 11.0588 16.8449 11.3449C17.1592 11.6186 17.37 12.0091 17.37 12.5797V15.7489ZM8.07481 8.84544C8.07477 8.90415 8.04423 9.00157 7.9131 9.09978C7.77922 9.20004 7.57409 9.27079 7.33995 9.2707C7.10581 9.27062 6.90083 9.19971 6.76718 9.09941C6.63629 9.00119 6.60592 8.90385 6.60596 8.84518C6.606 8.78648 6.63653 8.68905 6.76767 8.59085C6.90154 8.49059 7.10668 8.41983 7.34081 8.41992C7.57495 8.42001 7.77993 8.49092 7.91359 8.59121C8.04448 8.68943 8.07485 8.78677 8.07481 8.84544ZM6.64299 15.7489V10.956H8.11184V15.7489H6.64299Z" fill="white" stroke="white"/>
</svg>
