<svg width="27" height="26" viewBox="0 0 27 26" fill="none" xmlns="http://www.w3.org/2000/svg">
<path d="M13.5 23.9C16.3909 23.9 19.1633 22.7516 21.2075 20.7075C23.2516 18.6633 24.4 15.8909 24.4 13C24.4 10.1091 23.2516 7.33668 21.2075 5.29254C19.1633 3.24839 16.3909 2.1 13.5 2.1C10.6091 2.1 7.83668 3.24839 5.79254 5.29254C3.74839 7.33668 2.6 10.1091 2.6 13C2.6 15.8909 3.74839 18.6633 5.79254 20.7075C7.83668 22.7516 10.6091 23.9 13.5 23.9ZM13.5 25.5C6.59624 25.5 1 19.9038 1 13C1 6.09624 6.59624 0.5 13.5 0.5C20.4038 0.5 26 6.09624 26 13C26 19.9038 20.4038 25.5 13.5 25.5Z" fill="white" stroke="white"/>
<path d="M15.688 13.6684L15.688 13.6683L12.1328 15.3451C12.1327 15.3452 12.1326 15.3452 12.1325 15.3453C12.0348 15.3914 11.927 15.4121 11.8192 15.4056L11.8192 15.4056L15.688 13.6684ZM15.688 13.6684L15.6972 13.6638C15.8034 13.611 15.8929 13.53 15.9559 13.4295L15.5322 13.1639L15.9559 13.4295C16.0188 13.329 16.0528 13.2131 16.054 13.0946L15.688 13.6684ZM11.2957 15.0755C11.3481 15.1701 11.4236 15.2499 11.5151 15.3076L15.9627 12.7577C15.9018 12.6559 15.814 12.573 15.7089 12.5181L15.7089 12.518L15.7013 12.5142L12.1504 10.7349C12.1496 10.7345 12.1489 10.7341 12.1481 10.7338C12.0511 10.6847 11.9433 10.6611 11.8346 10.665L11.8346 10.665C11.7251 10.669 11.6184 10.701 11.5247 10.7578L11.7839 11.1853L11.5247 10.7578C11.431 10.8146 11.3534 10.8944 11.2992 10.9896C11.245 11.0848 11.2161 11.1923 11.2151 11.3019L11.2151 11.3019V11.3063L11.2151 14.7643L11.2151 14.7664C11.2155 14.8746 11.2433 14.9809 11.2957 15.0755ZM9.70008 8.98404H17.2999C18.5202 8.98404 19.5 9.96023 19.5 11.1542V14.9112C19.5 16.1041 18.5201 17.0814 17.2999 17.0814H9.70008C8.47975 17.0814 7.49998 16.1053 7.49998 14.9112V11.1542C7.49998 9.96137 8.47991 8.98404 9.70008 8.98404Z" fill="white" stroke="white"/>
</svg>
