<svg width="24" height="24" viewBox="0 0 24 24" fill="none" xmlns="http://www.w3.org/2000/svg">
<path d="M12 22.1C14.6787 22.1 17.2477 21.0359 19.1418 19.1418C21.0359 17.2477 22.1 14.6787 22.1 12C22.1 9.32131 21.0359 6.75234 19.1418 4.85822C17.2477 2.9641 14.6787 1.9 12 1.9C9.32131 1.9 6.75234 2.9641 4.85822 4.85822C2.9641 6.75234 1.9 9.32131 1.9 12C1.9 14.6787 2.9641 17.2477 4.85822 19.1418C6.75234 21.0359 9.32131 22.1 12 22.1ZM12 23.5C5.64854 23.5 0.5 18.3515 0.5 12C0.5 5.64854 5.64854 0.5 12 0.5C18.3515 0.5 23.5 5.64854 23.5 12C23.5 18.3515 18.3515 23.5 12 23.5Z" fill="white" stroke="white"/>
<mask id="path-2-inside-1_301_1737" fill="white">
<path d="M14.5385 8.48389H8.60727C7.44355 8.48389 6.5 9.4173 6.5 10.5678V13.4999C6.5 14.6515 7.44355 15.5839 8.60727 15.5839H14.5385C15.7022 15.5839 16.6457 14.6505 16.6457 13.4999V10.5678C16.6457 9.41628 15.7022 8.48389 14.5385 8.48389ZM13.114 12.1769L10.3392 13.4857C10.3222 13.4938 10.3035 13.4974 10.2847 13.4962C10.266 13.4951 10.2478 13.4893 10.2319 13.4792C10.2161 13.4692 10.203 13.4554 10.1939 13.4389C10.1848 13.4225 10.1799 13.4041 10.1799 13.3853V10.6865C10.18 10.6675 10.1851 10.6489 10.1945 10.6323C10.2039 10.6158 10.2173 10.6019 10.2336 10.5921C10.2499 10.5822 10.2684 10.5767 10.2874 10.576C10.3064 10.5753 10.3253 10.5795 10.3422 10.5881L13.116 11.9781C13.1343 11.9876 13.1495 12.002 13.1601 12.0197C13.1707 12.0373 13.1762 12.0576 13.1759 12.0781C13.1757 12.0987 13.1698 12.1188 13.1589 12.1363C13.148 12.1537 13.1324 12.1678 13.114 12.1769Z"/>
</mask>
<path d="M14.5385 8.48389H8.60727C7.44355 8.48389 6.5 9.4173 6.5 10.5678V13.4999C6.5 14.6515 7.44355 15.5839 8.60727 15.5839H14.5385C15.7022 15.5839 16.6457 14.6505 16.6457 13.4999V10.5678C16.6457 9.41628 15.7022 8.48389 14.5385 8.48389ZM13.114 12.1769L10.3392 13.4857C10.3222 13.4938 10.3035 13.4974 10.2847 13.4962C10.266 13.4951 10.2478 13.4893 10.2319 13.4792C10.2161 13.4692 10.203 13.4554 10.1939 13.4389C10.1848 13.4225 10.1799 13.4041 10.1799 13.3853V10.6865C10.18 10.6675 10.1851 10.6489 10.1945 10.6323C10.2039 10.6158 10.2173 10.6019 10.2336 10.5921C10.2499 10.5822 10.2684 10.5767 10.2874 10.576C10.3064 10.5753 10.3253 10.5795 10.3422 10.5881L13.116 11.9781C13.1343 11.9876 13.1495 12.002 13.1601 12.0197C13.1707 12.0373 13.1762 12.0576 13.1759 12.0781C13.1757 12.0987 13.1698 12.1188 13.1589 12.1363C13.148 12.1537 13.1324 12.1678 13.114 12.1769Z" fill="white"/>
<path d="M13.114 12.1769L13.5406 13.0814L13.5498 13.077L13.559 13.0725L13.114 12.1769ZM10.3392 13.4857L9.91256 12.5813L9.91187 12.5816L10.3392 13.4857ZM10.1799 13.3853H9.17985L9.17987 13.3894L10.1799 13.3853ZM10.1799 10.6865L9.17986 10.6776V10.6865H10.1799ZM10.3422 10.5881L9.8876 11.4788L9.8942 11.4822L10.3422 10.5881ZM13.116 11.9781L13.5792 11.0918L13.5717 11.0879L13.564 11.0841L13.116 11.9781ZM14.5385 7.48389H8.60727V9.48389H14.5385V7.48389ZM8.60727 7.48389C6.9017 7.48389 5.5 8.85464 5.5 10.5678H7.5C7.5 9.97996 7.98541 9.48389 8.60727 9.48389V7.48389ZM5.5 10.5678V13.4999H7.5V10.5678H5.5ZM5.5 13.4999C5.5 15.2145 6.90202 16.5839 8.60727 16.5839V14.5839C7.98509 14.5839 7.5 14.0885 7.5 13.4999H5.5ZM8.60727 16.5839H14.5385V14.5839H8.60727V16.5839ZM14.5385 16.5839C16.244 16.5839 17.6457 15.2131 17.6457 13.4999H15.6457C15.6457 14.0878 15.1603 14.5839 14.5385 14.5839V16.5839ZM17.6457 13.4999V10.5678H15.6457V13.4999H17.6457ZM17.6457 10.5678C17.6457 8.85331 16.2437 7.48389 14.5385 7.48389V9.48389C15.1607 9.48389 15.6457 9.97926 15.6457 10.5678H17.6457ZM12.6874 11.2725L9.91256 12.5813L10.7657 14.3902L13.5406 13.0814L12.6874 11.2725ZM9.91187 12.5816C10.047 12.5178 10.1961 12.489 10.3452 12.4981L10.2242 14.4944C10.4108 14.5057 10.5973 14.4698 10.7664 14.3899L9.91187 12.5816ZM10.3452 12.4981C10.4944 12.5071 10.6389 12.5537 10.7653 12.6334L9.69855 14.3251C9.85674 14.4249 10.0375 14.4831 10.2242 14.4944L10.3452 12.4981ZM10.7653 12.6334C10.8918 12.7131 10.996 12.8234 11.0685 12.9541L9.31924 13.9238C9.4099 14.0873 9.54036 14.2254 9.69855 14.3251L10.7653 12.6334ZM11.0685 12.9541C11.1409 13.0848 11.1792 13.2317 11.1799 13.3812L9.17987 13.3894C9.18064 13.5764 9.22859 13.7602 9.31924 13.9238L11.0685 12.9541ZM11.1799 13.3853V10.6865H9.17986V13.3853H11.1799ZM11.1798 10.6954C11.1785 10.8468 11.1385 10.9953 11.0636 11.1269L9.32533 10.1378C9.23165 10.3024 9.18159 10.4882 9.1799 10.6776L11.1798 10.6954ZM11.0636 11.1269C10.9887 11.2585 10.8815 11.3687 10.752 11.4472L9.71518 9.73696C9.5532 9.83516 9.419 9.97313 9.32533 10.1378L11.0636 11.1269ZM10.752 11.4472C10.6226 11.5257 10.4752 11.5698 10.3239 11.5753L10.2508 9.57666C10.0615 9.58358 9.87716 9.63876 9.71518 9.73696L10.752 11.4472ZM10.3239 11.5753C10.1726 11.5809 10.0224 11.5476 9.88761 11.4788L10.7968 9.69741C10.6281 9.61131 10.4402 9.56974 10.2508 9.57666L10.3239 11.5753ZM9.8942 11.4822L12.668 12.8721L13.564 11.0841L10.7902 9.69408L9.8942 11.4822ZM12.6529 12.8644C12.5077 12.7885 12.3863 12.6739 12.3021 12.5334L14.0181 11.5059C13.9128 11.3301 13.7609 11.1867 13.5792 11.0918L12.6529 12.8644ZM12.3021 12.5334C12.218 12.3928 12.1743 12.2317 12.176 12.0679L14.1759 12.0883C14.178 11.8834 14.1234 11.6818 14.0181 11.5059L12.3021 12.5334ZM12.176 12.0679C12.1777 11.9041 12.2246 11.744 12.3116 11.6051L14.0062 12.6674C14.1151 12.4937 14.1738 12.2933 14.1759 12.0883L12.176 12.0679ZM12.3116 11.6051C12.3986 11.4664 12.5223 11.3543 12.669 11.2814L13.559 13.0725C13.7426 12.9813 13.8973 12.8411 14.0062 12.6674L12.3116 11.6051Z" fill="white" mask="url(#path-2-inside-1_301_1737)"/>
</svg>
