<svg width="24" height="24" viewBox="0 0 24 24" fill="none" xmlns="http://www.w3.org/2000/svg">
<circle cx="12" cy="12" r="10.75" stroke="white" stroke-width="2.5"/>
<mask id="path-2-inside-1_301_1741" fill="white">
<path d="M9.7419 8H5.99982L10.4155 12.4139L6.24038 16.015H7.65702L11.0719 13.0699L14.0186 16.015H17.7606L13.159 11.4152L17.1191 8H15.7025L12.5025 10.7596L9.7419 8ZM14.5531 15.2135L8.13815 8.8015H9.20732L15.6223 15.2135H14.5531Z"/>
</mask>
<path d="M9.7419 8H5.99982L10.4155 12.4139L6.24038 16.015H7.65702L11.0719 13.0699L14.0186 16.015H17.7606L13.159 11.4152L17.1191 8H15.7025L12.5025 10.7596L9.7419 8ZM14.5531 15.2135L8.13815 8.8015H9.20732L15.6223 15.2135H14.5531Z" fill="white"/>
<path d="M9.7419 8L10.4489 7.29276L10.156 7H9.7419V8ZM5.99982 8V7H3.58491L5.29285 8.70725L5.99982 8ZM10.4155 12.4139L11.0686 13.1711L11.884 12.4678L11.1224 11.7066L10.4155 12.4139ZM6.24038 16.015L5.58724 15.2578L3.54994 17.015H6.24038V16.015ZM7.65702 16.015V17.015H8.02868L8.31012 16.7723L7.65702 16.015ZM11.0719 13.0699L11.7789 12.3626L11.1221 11.7062L10.4188 12.3126L11.0719 13.0699ZM14.0186 16.015L13.3116 16.7223L13.6045 17.015H14.0186V16.015ZM17.7606 16.015V17.015H20.1756L18.4676 15.3078L17.7606 16.015ZM13.159 11.4152L12.5059 10.6579L11.6904 11.3612L12.452 12.1225L13.159 11.4152ZM17.1191 8L17.7722 8.75729L19.8099 7H17.1191V8ZM15.7025 8V7H15.3309L15.0494 7.2427L15.7025 8ZM12.5025 10.7596L11.7955 11.4668L12.4523 12.1233L13.1556 11.5169L12.5025 10.7596ZM14.5531 15.2135L13.8462 15.9208L14.1391 16.2135H14.5531V15.2135ZM8.13815 8.8015V7.8015H5.72314L7.43121 9.50877L8.13815 8.8015ZM9.20732 8.8015L9.91426 8.09423L9.62139 7.8015H9.20732V8.8015ZM15.6223 15.2135V16.2135H18.0373L16.3293 14.5063L15.6223 15.2135ZM9.7419 7H5.99982V9H9.7419V7ZM5.29285 8.70725L9.70851 13.1211L11.1224 11.7066L6.70678 7.29275L5.29285 8.70725ZM9.76233 11.6566L5.58724 15.2578L6.89352 16.7723L11.0686 13.1711L9.76233 11.6566ZM6.24038 17.015H7.65702V15.015H6.24038V17.015ZM8.31012 16.7723L11.725 13.8272L10.4188 12.3126L7.00393 15.2578L8.31012 16.7723ZM10.365 13.7772L13.3116 16.7223L14.7255 15.3077L11.7789 12.3626L10.365 13.7772ZM14.0186 17.015H17.7606V15.015H14.0186V17.015ZM18.4676 15.3078L13.8659 10.708L12.452 12.1225L17.0537 16.7223L18.4676 15.3078ZM13.812 12.1725L17.7722 8.75729L16.4661 7.24271L12.5059 10.6579L13.812 12.1725ZM17.1191 7H15.7025V9H17.1191V7ZM15.0494 7.2427L11.8494 10.0023L13.1556 11.5169L16.3556 8.7573L15.0494 7.2427ZM13.2095 10.0523L10.4489 7.29276L9.03492 8.70724L11.7955 11.4668L13.2095 10.0523ZM15.2601 14.5063L8.84509 8.09423L7.43121 9.50877L13.8462 15.9208L15.2601 14.5063ZM8.13815 9.8015H9.20732V7.8015H8.13815V9.8015ZM8.50037 9.50877L14.9154 15.9208L16.3293 14.5063L9.91426 8.09423L8.50037 9.50877ZM15.6223 14.2135H14.5531V16.2135H15.6223V14.2135Z" fill="white" mask="url(#path-2-inside-1_301_1741)"/>
</svg>
