<svg width="26" height="26" viewBox="0 0 26 26" fill="none" xmlns="http://www.w3.org/2000/svg">
<circle cx="13" cy="13" r="11.75" stroke="white" stroke-width="2.5"/>
<path d="M13.0393 11.8274L13.0289 12.1537L12.9775 13.771L13.2773 13.3608C13.1218 13.6232 13.0286 13.939 13.0286 14.3099V17.1031H11.3942V11.8274H13.0393ZM18.8592 17.1031H17.2181V14.3099C17.2181 13.661 16.9529 13.1496 16.5306 12.8144C16.1223 12.4903 15.602 12.3571 15.11 12.3702C14.533 12.3856 13.8917 12.6204 13.4755 13.0896L13.9323 12.4645C14.1194 12.2085 14.505 11.9615 15.049 11.8015C15.5817 11.6448 16.2063 11.5903 16.797 11.6655C17.3905 11.7411 17.912 11.9422 18.276 12.259C18.6257 12.5635 18.8592 12.9981 18.8592 13.6282V17.1031ZM8.78942 9.58272C8.78936 9.66188 8.74798 9.77891 8.59754 9.89158C8.44437 10.0063 8.21306 10.0852 7.95164 10.0851C7.69022 10.085 7.45908 10.0059 7.30614 9.89116C7.15597 9.77847 7.11478 9.66151 7.11483 9.58239C7.11488 9.50323 7.15627 9.38619 7.30671 9.27353C7.45988 9.15882 7.69119 9.07995 7.95261 9.08005C8.21403 9.08015 8.44517 9.15919 8.5981 9.27395C8.74828 9.38664 8.78947 9.5036 8.78942 9.58272ZM7.15495 17.1031V11.8274H8.82954V17.1031H7.15495Z" fill="white" stroke="white"/>
</svg>
