<svg width="112" height="19" viewBox="0 0 112 19" fill="none" xmlns="http://www.w3.org/2000/svg">
<path d="M10 15.27L16.18 19L14.54 11.97L20 7.24L12.81 6.63L10 0L7.19 6.63L0 7.24L5.46 11.97L3.82 19L10 15.27Z" fill="#FBC800"/>
<path d="M33 15.27L39.18 19L37.54 11.97L43 7.24L35.81 6.63L33 0L30.19 6.63L23 7.24L28.46 11.97L26.82 19L33 15.27Z" fill="#FBC800"/>
<path d="M56 15.27L62.18 19L60.54 11.97L66 7.24L58.81 6.63L56 0L53.19 6.63L46 7.24L51.46 11.97L49.82 19L56 15.27Z" fill="#FBC800"/>
<path d="M79 15.27L85.18 19L83.54 11.97L89 7.24L81.81 6.63L79 0L76.19 6.63L69 7.24L74.46 11.97L72.82 19L79 15.27Z" fill="#FBC800"/>
<path d="M102 15.27L108.18 19L106.54 11.97L112 7.24L104.81 6.63L102 0L99.19 6.63L92 7.24L97.46 11.97L95.82 19L102 15.27Z" fill="#FBC800"/>
</svg>
