<svg width="37" height="37" viewBox="0 0 37 37" fill="none" xmlns="http://www.w3.org/2000/svg">
<g clip-path="url(#clip0_78_699)">
<path d="M34.6875 3.46614L25.4294 3.46618V1.16177C25.4294 0.522945 24.912 0.00552368 24.2732 0.00552368C23.6343 0.00552368 23.1169 0.522945 23.1169 1.16177V3.4656H13.8669V1.16177C13.8669 0.522945 13.3495 0.00552368 12.7107 0.00552368C12.0718 0.00552368 11.5544 0.522945 11.5544 1.16177V3.4656H2.3125C1.03542 3.4656 0 4.50102 0 5.7781V34.6843C0 35.9614 1.03542 36.9968 2.3125 36.9968H34.6875C35.9646 36.9968 37 35.9614 37 34.6843V5.7781C37 4.50156 35.9646 3.46614 34.6875 3.46614ZM34.6875 34.6843H2.3125V5.7781H11.5544V6.94302C11.5544 7.58181 12.0718 8.09927 12.7107 8.09927C13.3495 8.09927 13.8669 7.58181 13.8669 6.94302V5.77868H23.1169V6.9436C23.1169 7.58243 23.6343 8.09985 24.2732 8.09985C24.912 8.09985 25.4294 7.58243 25.4294 6.9436V5.77868H34.6875V34.6843ZM26.5938 18.4974H28.9062C29.5445 18.4974 30.0625 17.9794 30.0625 17.3411V15.0286C30.0625 14.3904 29.5445 13.8724 28.9062 13.8724H26.5938C25.9555 13.8724 25.4375 14.3904 25.4375 15.0286V17.3411C25.4375 17.9794 25.9555 18.4974 26.5938 18.4974ZM26.5938 27.7468H28.9062C29.5445 27.7468 30.0625 27.2294 30.0625 26.5906V24.2781C30.0625 23.6398 29.5445 23.1218 28.9062 23.1218H26.5938C25.9555 23.1218 25.4375 23.6398 25.4375 24.2781V26.5906C25.4375 27.23 25.9555 27.7468 26.5938 27.7468ZM19.6562 23.1218H17.3438C16.7055 23.1218 16.1875 23.6398 16.1875 24.2781V26.5906C16.1875 27.2294 16.7055 27.7468 17.3438 27.7468H19.6562C20.2945 27.7468 20.8125 27.2294 20.8125 26.5906V24.2781C20.8125 23.6404 20.2945 23.1218 19.6562 23.1218ZM19.6562 13.8724H17.3438C16.7055 13.8724 16.1875 14.3904 16.1875 15.0286V17.3411C16.1875 17.9794 16.7055 18.4974 17.3438 18.4974H19.6562C20.2945 18.4974 20.8125 17.9794 20.8125 17.3411V15.0286C20.8125 14.3898 20.2945 13.8724 19.6562 13.8724ZM10.4062 13.8724H8.09375C7.4555 13.8724 6.9375 14.3904 6.9375 15.0286V17.3411C6.9375 17.9794 7.4555 18.4974 8.09375 18.4974H10.4062C11.0445 18.4974 11.5625 17.9794 11.5625 17.3411V15.0286C11.5625 14.3898 11.0445 13.8724 10.4062 13.8724ZM10.4062 23.1218H8.09375C7.4555 23.1218 6.9375 23.6398 6.9375 24.2781V26.5906C6.9375 27.2294 7.4555 27.7468 8.09375 27.7468H10.4062C11.0445 27.7468 11.5625 27.2294 11.5625 26.5906V24.2781C11.5625 23.6404 11.0445 23.1218 10.4062 23.1218Z" fill="#646464"/>
</g>
<defs>
<clipPath id="clip0_78_699">
<rect width="37" height="37" fill="white"/>
</clipPath>
</defs>
</svg>
