<svg width="27" height="26" viewBox="0 0 27 26" fill="none" xmlns="http://www.w3.org/2000/svg">
<path d="M14.3 23.3193L14.2999 23.8871L14.8631 23.8154C17.6117 23.4657 20.1239 22.0825 21.8892 19.947C23.6546 17.8115 24.5405 15.0839 24.367 12.3187C24.1935 9.55339 22.9736 6.95795 20.9552 5.05985C18.9367 3.16175 16.2713 2.10343 13.5006 2.1H13.5004C10.7263 2.09793 8.05575 3.15367 6.03297 5.0521C4.01019 6.95052 2.78736 9.54878 2.61365 12.3174C2.43993 15.0861 3.32841 17.8168 5.09803 19.9532C6.86766 22.0896 9.38527 23.4708 12.1379 23.8155L12.7 23.8859V23.3194V15.6V15.1H12.2H10.1V13.5H12.2H12.7V13V10.8498C12.7 9.15282 12.8773 8.61467 13.1615 8.08023L13.1619 8.07938C13.4478 7.53915 13.8898 7.09756 14.4303 6.81213L14.4303 6.81214L14.4332 6.81057C14.8404 6.59204 15.3771 6.44039 16.4218 6.37368C16.7153 6.35495 17.0902 6.36812 17.5513 6.41893V7.9487H17.4013C16.8021 7.9487 16.3583 7.96252 16.021 7.99925C15.6863 8.0357 15.4179 8.09817 15.1902 8.21922C14.925 8.35671 14.7089 8.57296 14.5715 8.83825C14.3501 9.25662 14.3013 9.67201 14.3013 10.8485V13V13.5H14.8013H17.4109L17.0109 15.1H14.8013H14.3014L14.3013 15.5999L14.3 23.3193ZM13.5 25.5C6.59624 25.5 1 19.9038 1 13C1 6.09624 6.59624 0.5 13.5 0.5C20.4038 0.5 26 6.09624 26 13C26 19.9038 20.4038 25.5 13.5 25.5Z" fill="white" stroke="white"/>
</svg>
