<svg width="19" height="30" viewBox="0 0 19 30" fill="none" xmlns="http://www.w3.org/2000/svg">
<path d="M0 3.75C0 2.75544 0.395088 1.80161 1.09835 1.09835C1.80161 0.395088 2.75544 0 3.75 0L15 0C15.9946 0 16.9484 0.395088 17.6517 1.09835C18.3549 1.80161 18.75 2.75544 18.75 3.75V26.25C18.75 27.2446 18.3549 28.1984 17.6517 28.9016C16.9484 29.6049 15.9946 30 15 30H3.75C2.75544 30 1.80161 29.6049 1.09835 28.9016C0.395088 28.1984 0 27.2446 0 26.25V3.75ZM11.25 24.375C11.25 23.8777 11.0525 23.4008 10.7008 23.0492C10.3492 22.6975 9.87228 22.5 9.375 22.5C8.87772 22.5 8.40081 22.6975 8.04918 23.0492C7.69754 23.4008 7.5 23.8777 7.5 24.375C7.5 24.8723 7.69754 25.3492 8.04918 25.7008C8.40081 26.0525 8.87772 26.25 9.375 26.25C9.87228 26.25 10.3492 26.0525 10.7008 25.7008C11.0525 25.3492 11.25 24.8723 11.25 24.375Z" fill="white"/>
</svg>
