<svg width="24" height="24" viewBox="0 0 24 24" fill="none" xmlns="http://www.w3.org/2000/svg">
<path d="M12.7 21.5255L12.6999 22.0933L13.2631 22.0216C15.8099 21.6975 18.1378 20.4159 19.7735 18.4371C21.4093 16.4583 22.2302 13.931 22.0695 11.3687C21.9087 8.80635 20.7783 6.4014 18.908 4.64261C17.0378 2.88383 14.568 1.90318 12.0006 1.9L12.0004 1.9C9.42987 1.89809 6.95536 2.87634 5.08104 4.63543C3.20672 6.39452 2.07364 8.80208 1.91267 11.3675C1.75171 13.933 2.57497 16.4633 4.21472 18.4429C5.85446 20.4224 8.18729 21.7023 10.7379 22.0217L11.3 22.0921V21.5256V14.4V13.9H10.8H8.9V12.5H10.8H11.3V12V10.0152C11.3 8.45192 11.4633 7.96227 11.7215 7.47673L11.7219 7.47588C11.9822 6.98404 12.3846 6.58199 12.8767 6.32213L12.8767 6.32214L12.8796 6.32057C13.2486 6.12254 13.7378 5.98319 14.6995 5.92178C14.9603 5.90513 15.2928 5.91603 15.7012 5.95968V7.2988H15.6012C15.0478 7.2988 14.6365 7.31155 14.3229 7.34569C14.012 7.37955 13.7587 7.43792 13.5424 7.5529C13.2906 7.68344 13.0854 7.88872 12.955 8.14054C12.7456 8.53632 12.7012 8.92924 12.7012 10.014V12V12.5H13.2012H15.5608L15.2108 13.9H13.2012H12.7013L12.7012 14.3999L12.7 21.5255ZM12 23.5C5.64854 23.5 0.5 18.3515 0.5 12C0.5 5.64854 5.64854 0.5 12 0.5C18.3515 0.5 23.5 5.64854 23.5 12C23.5 18.3515 18.3515 23.5 12 23.5Z" fill="white" stroke="white"/>
</svg>
