<svg width="60" height="51" viewBox="0 0 60 51" fill="none" xmlns="http://www.w3.org/2000/svg">
<path d="M54.916 17.85V17.35H54.416H38.9448L33.0555 13.25H33.1716H53.6834H54.3679L54.1597 12.598C52.6305 7.80729 48.2915 4.6 43.4275 4.6C38.5635 4.6 34.2244 7.80729 32.6952 12.598L32.5905 12.9262L29.1248 10.5135C29.838 8.47517 30.9724 6.84446 32.5559 5.19082C35.3936 2.22752 39.4151 0.5 43.4275 0.5C51.2029 0.5 57.8378 6.6502 58.7997 14.8191V50.5H54.916V17.85ZM32.439 46.4H32.939V45.9V25.5V25.2319L32.7157 25.0836L19.2853 16.1586L19.0086 15.9747L18.7319 16.1586L5.3015 25.0836L5.07823 25.2319V25.5V45.9V46.4H5.57823H12.9039H13.4039V45.9V31.1H24.6133V45.9V46.4H25.1133H32.439ZM49.0322 47.95H42.7065V43.85H49.0322V47.95ZM49.0322 37.75H42.7065V33.65H49.0322V37.75ZM49.0322 27.55H42.7065V23.45H49.0322V27.55ZM36.8228 23.2111V50.5H1.19446V23.2111L19.0086 10.8092L36.8228 23.2111Z" fill="#004D35" stroke="#004D35"/>
</svg>
