<svg width="38" height="53" viewBox="0 0 38 53" fill="none" xmlns="http://www.w3.org/2000/svg">
<path d="M18.9286 27H18.9291C21.0689 26.9977 23.1204 26.1466 24.6335 24.6335C26.1466 23.1204 26.9976 21.0689 27 18.9291V18.9286C27 17.3322 26.5266 15.7717 25.6397 14.4443C24.7528 13.117 23.4922 12.0824 22.0174 11.4715C20.5425 10.8606 18.9196 10.7008 17.3539 11.0122C15.7882 11.3237 14.35 12.0924 13.2212 13.2212C12.0924 14.35 11.3237 15.7882 11.0122 17.3539C10.7008 18.9196 10.8606 20.5425 11.4715 22.0174C12.0824 23.4922 13.117 24.7528 14.4443 25.6397C15.7717 26.5266 17.3322 27 18.9286 27ZM18.9286 52.2479C18.8095 52.1127 18.6636 51.9457 18.4935 51.7488C17.979 51.1534 17.243 50.2849 16.3593 49.1951C14.5917 47.015 12.2355 43.9519 9.8803 40.4191C7.52421 36.8849 5.17496 32.8895 3.41612 28.8442C1.65508 24.7938 0.5 20.725 0.5 17.0357C0.5 7.95614 8.70411 0.5 18.9286 0.5C29.153 0.5 37.3571 7.95614 37.3571 17.0357C37.3571 20.725 36.202 24.7938 34.441 28.8442C32.6822 32.8895 30.3329 36.8849 27.9768 40.4191C25.6216 43.9519 23.2654 47.015 21.4978 49.1951C20.6142 50.2849 19.8782 51.1534 19.3636 51.7488C19.1935 51.9457 19.0476 52.1127 18.9286 52.2479Z" fill="#004D35" stroke="#004D35"/>
</svg>
